<svg t="1687836521349" class="icon" viewBox="0 0 1024 1024" version="1.1" xmlns="http://www.w3.org/2000/svg" p-id="8816"
  width="200" height="200">
  <path
    d="M719.130989 354.666672c-0.230244 0.944512-0.493234 1.890047-0.774643 2.835581-0.084934 0.273223-0.169869 0.544399-0.264013 0.833995-0.204661 0.681522-0.434905 1.362021-0.672312 2.034333-0.094144 0.280386-0.195451 0.571005-0.297782 0.860601-0.085958 0.237407-0.188288 0.493234-0.289596 0.740874-0.23843 0.638543-0.476861 1.286296-0.74906 1.924839-0.094144 0.221034-0.195451 0.443092-0.289596 0.672312-0.203638 0.467651-0.416486 0.936325-0.629333 1.413186-0.102331 0.203638-0.187265 0.407276-0.273223 0.613984-0.179079 0.373507-0.358157 0.747014-0.535189 1.12359-0.085958 0.153496-0.170892 0.323365-0.24764 0.477884-0.195451 0.38988-0.391926 0.781806-0.587378 1.157359-0.195451 0.373507-0.382717 0.74906-0.569982 1.107217-0.103354 0.169869-0.204661 0.339738-0.298805 0.51984-0.339738 0.621147-0.680499 1.233084-1.046842 1.847068-0.254803 0.444115-0.528026 0.876973-0.782829 1.310855-0.265036 0.417509-0.51984 0.835018-0.783853 1.260713-0.316202 0.475837-0.630357 0.969071-0.954745 1.446955-0.230244 0.339738-0.459464 0.681522-0.697895 1.02126-0.613984 0.903579-1.252527 1.788739-1.907443 2.664689 0 0.010233-0.017396 0.01842-0.017396 0.025583-0.664126 0.88516-1.328251 1.75497-2.034333 2.631944-0.060375 0.075725-0.127913 0.161682-0.195451 0.237407-0.118704 0.161682-0.255827 0.316202-0.38374 0.48607-0.467651 0.561795-0.936325 1.140986-1.422396 1.702782-0.033769 0.050142-0.075725 0.083911-0.118704 0.1361-0.084934 0.102331-0.187265 0.222057-0.280386 0.323365-1.073448 1.243317-2.188852 2.486634-3.346211 3.711532-0.01842 0.010233-0.01842 0.01842-0.01842 0.01842-2.24718 2.37407-4.64888 4.709255-7.203052 6.999414-0.017396 0.008186-0.017396 0.016373-0.024559 0.016373-1.217734 1.099031-2.478448 2.180666-3.76372 3.254114l-0.332575 0.287549c-2.690272 2.222621-5.517667 4.411473-8.488325 6.547113 14.602579 3.177366 28.668946 7.842619 42.001603 13.854543l0-66.098417L719.130989 354.667695zM164.219667 295.17472c5.909593 56.82624 95.909373 103.759155 215.273948 116.15651 12.627598 1.310855 25.594935 2.230808 38.818097 2.740414 7.93574 0.308015 15.956414 0.459464 24.070208 0.459464 2.699482 0 5.40715-0.016373 8.080026-0.050142 18.800181-0.239454 37.123502-1.310855 54.816466-3.149736 22.034852-2.290159 43.066865-5.756097 62.752206-10.253528 1.685385-0.381693 3.354398-0.773619 5.0142-1.174756 12.831236-3.063779 25.057699-6.571672 36.58729-10.488889 2.24718-0.74906 4.453429-1.532913 6.641257-2.316765 4.716418-1.684362 9.29776-3.457752 13.751189-5.278213 3.176342-1.310855 6.275937-2.64013 9.30697-4.01136 3.013637-1.352811 5.943362-2.742461 8.820899-4.155646 1.302669-0.63752 2.587941-1.285273 3.857864-1.948375 4.247744-2.180666 8.352225-4.428869 12.268418-6.743588 0.034792-0.033769 0.085958-0.067538 0.137123-0.084934 5.636371-3.354398 10.915607-6.829546 15.794731-10.422374 1.182942-0.876973 2.341325-1.763157 3.482311-2.648316 4.530177-3.533476 8.702196-7.178493 12.473079-10.924817 0.961908-0.953721 1.89107-1.915629 2.800789-2.885723 3.542686-3.77293 6.701632-7.637957 9.434883-11.597129 1.310855-1.915629 2.520403-3.840468 3.635807-5.798053 1.234107-2.145873 2.341325-4.308119 3.320629-6.488785 0.544399-1.225921 1.046842-2.451842 1.515516-3.677762 1.880837-4.998851 3.133364-10.081613 3.669576-15.258519 0.102331-0.902556 0.169869-1.805112 0.221034-2.707668 0.060375-1.081635 0.084934-2.162246 0.084934-3.235694 0-69.206198-124.669394-125.317147-278.468223-125.317147-153.789619 0-278.468223 56.110949-278.468223 125.317147 0 1.073448 0.033769 2.15406 0.094144 3.235694C164.067194 293.369607 164.134733 294.272163 164.219667 295.17472zM475.614813 761.713318c-2.520403 0.125867-5.03262 0.264013-7.569396 0.373507-0.672312 0.025583-1.336438 0.060375-2.00875 0.075725-3.52529 0.1361-7.066953 0.239454-10.635221 0.323365-0.579191 0.008186-1.174756 0.01842-1.763157 0.025583-3.737114 0.060375-7.483438 0.109494-11.256368 0.109494-3.771907 0-7.518231-0.050142-11.247158-0.109494-0.596588-0.008186-1.183965-0.025583-1.77032-0.033769-3.560082-0.075725-7.100722-0.180102-10.627035-0.316202-0.672312-0.023536-1.344624-0.050142-2.009773-0.083911-3.559059-0.1361-7.100722-0.308015-10.616802-0.51984-0.434905-0.025583-0.860601-0.052189-1.286296-0.077771-3.507894-0.211824-6.990205-0.449231-10.456143-0.723477-0.264013-0.023536-0.528026-0.041956-0.800225-0.058328-3.533476-0.281409-7.04137-0.597611-10.541077-0.937348-0.578168-0.060375-1.149173-0.119727-1.720178-0.169869-3.422959-0.349971-6.811126-0.715291-10.166547-1.125637-0.536212-0.058328-1.073448-0.127913-1.600451-0.186242-3.475148-0.425695-6.930853-0.86981-10.353812-1.363044-0.102331-0.008186-0.212848-0.016373-0.323365-0.033769-3.439332-0.493234-6.862291-1.02126-10.251481-1.558495-0.332575-0.058328-0.664126-0.102331-0.988514-0.161682-3.328815-0.535189-6.623861-1.105171-9.885138-1.702782-0.485047-0.083911-0.960885-0.186242-1.438769-0.272199-3.26844-0.595564-6.496971-1.224898-9.689686-1.89107-0.323365-0.067538-0.629333-0.1361-0.945535-0.203638-6.65763-1.379417-13.170974-2.87856-19.531845-4.479011-0.306992-0.083911-0.621147-0.161682-0.928139-0.237407-3.082198-0.791016-6.129604-1.600451-9.145287-2.444679-0.340761-0.094144-0.680499-0.195451-1.030469-0.279363-3.055592-0.86981-6.087649-1.75497-9.067516-2.665713-0.075725-0.023536-0.152473-0.041956-0.230244-0.075725-3.107781-0.953721-6.172583-1.924839-9.179057-2.929726-0.033769-0.016373-0.075725-0.023536-0.102331-0.033769-2.920516-0.979304-5.780657-1.983167-8.608052-3.004427-0.152473-0.060375-0.323365-0.11154-0.48607-0.171915l0.017396 0c-55.55734-20.222577-93.463672-49.867758-101.740172-83.535555l-1.720178 0 0 83.535555c0 56.206116 82.242096 103.767342 195.528232 119.655194l0 0c0.008186 0 0.017396 0 0.033769 0.010233 2.912329 0.400113 5.858428 0.791016 8.820899 1.149173 0.715291 0.094144 1.429559 0.188288 2.145873 0.264013 2.928702 0.349971 5.874801 0.689708 8.838296 0.995677 0.051165 0.010233 0.084934 0.01842 0.127913 0.01842 3.00545 0.314155 6.036483 0.595564 9.084912 0.867764 0.732687 0.067538 1.480724 0.138146 2.222621 0.188288 3.021823 0.255827 6.04467 0.493234 9.102309 0.715291 0.033769 0 0.067538 0 0.102331 0 3.083222 0.211824 6.181793 0.391926 9.29776 0.561795 0.766456 0.033769 1.532913 0.085958 2.299369 0.119727 3.098571 0.151449 6.215562 0.289596 9.348925 0.400113 0.017396 0.008186 0.051165 0.008186 0.067538 0.008186 3.14155 0.102331 6.309706 0.180102 9.477862 0.239454 0.791016 0.016373 1.592264 0.023536 2.39249 0.041956 3.183506 0.041956 6.369058 0.075725 9.578146 0.075725s6.412037-0.033769 9.587356-0.075725c0.791016-0.01842 1.592264-0.025583 2.39249-0.041956 3.168156-0.060375 6.334265-0.138146 9.468652-0.239454 0.033769 0 0.051165 0 0.067538-0.008186 3.134387-0.109494 6.249331-0.24764 9.348925-0.400113 0.766456-0.033769 1.542122-0.085958 2.307555-0.119727 3.107781-0.169869 6.215562-0.349971 9.289574-0.561795 0.033769 0 0.067538 0 0.102331 0 3.065825-0.222057 6.096858-0.459464 9.110495-0.715291 0.74906-0.050142 1.481747-0.119727 2.222621-0.188288 3.040243-0.272199 6.071276-0.553609 9.084912-0.867764 0.033769 0 0.067538-0.008186 0.118704-0.01842 2.963495-0.305969 5.90857-0.645706 8.838296-0.995677 0.715291-0.075725 1.430582-0.169869 2.15406-0.264013 2.955308-0.358157 5.901407-0.74906 8.830109-1.149173 0-0.010233 0.017396-0.010233 0.033769-0.010233 35.862789-5.022387 68.610634-13.239536 96.638991-23.892153C564.235177 827.554886 512.466116 801.621237 475.614813 761.713318zM164.067194 590.357626c0.042979 0.663102 0.094144 1.327228 0.161682 1.992377 0.042979 0.358157 0.076748 0.713244 0.127913 1.071402 0.067538 0.63138 0.152473 1.260713 0.254803 1.89107 0.052189 0.349971 0.103354 0.697895 0.170892 1.039679 0.118704 0.681522 0.254803 1.360997 0.391926 2.042519 0.059352 0.281409 0.110517 0.561795 0.169869 0.851391 0.222057 0.953721 0.451278 1.908466 0.715291 2.862187 0.033769 0.083911 0.060375 0.186242 0.084934 0.272199 0.23843 0.851391 0.493234 1.702782 0.783853 2.554172 0.094144 0.305969 0.203638 0.613984 0.306992 0.918929 0.221034 0.639566 0.459464 1.277086 0.697895 1.924839 0.127913 0.331551 0.255827 0.663102 0.391926 1.004887 0.255827 0.621147 0.511653 1.243317 0.783853 1.855254 0.137123 0.323365 0.273223 0.647753 0.425695 0.971118 0.306992 0.681522 0.630357 1.37123 0.970094 2.044566 0.110517 0.245593 0.222057 0.493234 0.340761 0.731664 0.476861 0.918929 0.954745 1.838881 1.465374 2.75781 0.084934 0.1361 0.169869 0.274246 0.237407 0.409322 0.443092 0.765433 0.89437 1.541099 1.363044 2.314719 0.179079 0.289596 0.357134 0.563842 0.544399 0.851391 0.391926 0.621147 0.791016 1.243317 1.209548 1.874697 0.203638 0.305969 0.408299 0.611937 0.629333 0.918929 0.417509 0.613984 0.851391 1.224898 1.294482 1.838881 0.204661 0.289596 0.408299 0.569982 0.621147 0.851391 0.529049 0.715291 1.082658 1.430582 1.627057 2.128477 0.1361 0.169869 0.264013 0.339738 0.391926 0.511653 0.714268 0.88516 1.446955 1.778506 2.205225 2.656503 0.109494 0.1361 0.230244 0.264013 0.348947 0.391926 0.629333 0.73985 1.277086 1.472538 1.941212 2.204202 0.237407 0.24764 0.467651 0.503467 0.697895 0.741897 0.579191 0.629333 1.158383 1.243317 1.753947 1.856277 0.264013 0.264013 0.529049 0.528026 0.783853 0.791016 0.613984 0.621147 1.252527 1.233084 1.89107 1.864464 0.237407 0.220011 0.459464 0.442068 0.706081 0.681522 0.808412 0.765433 1.642406 1.530866 2.494821 2.298346 0.060375 0.067538 0.119727 0.127913 0.188288 0.186242 0.953721 0.851391 1.933025 1.704828 2.928702 2.556219 0.127913 0.102331 0.264013 0.211824 0.391926 0.321318 0.842181 0.715291 1.693572 1.415232 2.571568 2.112104 0.255827 0.203638 0.51063 0.417509 0.774643 0.621147 0.775666 0.613984 1.557472 1.224898 2.350534 1.830695 0.280386 0.222057 0.553609 0.425695 0.833995 0.63752 0.842181 0.639566 1.702782 1.2689 2.562359 1.898233 0.222057 0.153496 0.444115 0.316202 0.664126 0.477884 2.238994 1.608637 4.563946 3.193739 6.965645 4.751211 0.102331 0.067538 0.212848 0.1361 0.322341 0.203638 1.073448 0.699941 2.15406 1.388627 3.25309 2.070148 0.255827 0.151449 0.502443 0.305969 0.74906 0.459464 1.003863 0.621147 2.009773 1.216711 3.031033 1.830695 0.264013 0.151449 0.51984 0.297782 0.775666 0.459464 1.115404 0.645706 2.238994 1.293459 3.37998 1.933025 0.153496 0.083911 0.289596 0.161682 0.443092 0.245593 2.673899 1.499144 5.432733 2.979868 8.267291 4.428869 0.060375 0.023536 0.127913 0.058328 0.195451 0.092098 1.311879 0.665149 2.64013 1.321088 3.985778 1.984191 0.203638 0.102331 0.416486 0.203638 0.629333 0.305969 1.243317 0.605797 2.503007 1.201361 3.780093 1.788739 0.204661 0.094144 0.391926 0.188288 0.596588 0.289596 5.943362 2.750647 12.158924 5.372358 18.646686 7.867178 0.137123 0.052189 0.281409 0.119727 0.425695 0.169869 1.524726 0.579191 3.056616 1.159406 4.615111 1.728364 0.094144 0.044002 0.188288 0.077771 0.289596 0.11154 6.709819 2.451842 13.682627 4.776793 20.894889 6.947226l0.161682 0.050142c21.907962 6.607488 46.012963 11.843746 71.718415 15.445784l0 0c0.008186 0 0.017396 0 0.033769 0.010233 0.851391 0.109494 1.720178 0.220011 2.571568 0.331551 1.685385 0.230244 3.37998 0.451278 5.074575 0.663102 0.391926 0.052189 0.783853 0.11154 1.174756 0.153496 0.715291 0.094144 1.429559 0.188288 2.145873 0.264013 0.203638 0.025583 0.391926 0.041956 0.595564 0.067538 2.137687 0.264013 4.291746 0.50142 6.445806 0.723477 0.604774 0.067538 1.201361 0.144286 1.796926 0.203638 0.051165 0.01842 0.084934 0.01842 0.1361 0.01842 0.902556 0.094144 1.839905 0.169869 2.750647 0.264013 1.64343 0.161682 3.28686 0.316202 4.938476 0.467651 0.468674 0.044002 0.918929 0.085958 1.387603 0.1361 0.740874 0.067538 1.480724 0.127913 2.222621 0.188288 0.179079 0.01842 0.348947 0.033769 0.51984 0.041956 2.485611 0.213871 4.988618 0.402159 7.491625 0.579191 0.358157 0.025583 0.724501 0.060375 1.089821 0.094144 0.033769 0 0.067538 0 0.102331 0 0.918929 0.067538 1.839905 0.102331 2.758834 0.169869 1.685385 0.102331 3.37998 0.203638 5.083785 0.308015 0.485047 0.016373 0.960885 0.050142 1.455141 0.083911 0.766456 0.033769 1.532913 0.085958 2.299369 0.119727 0.118704 0 0.23843 0.008186 0.358157 0.016373 2.544963 0.119727 5.108345 0.230244 7.671727 0.323365 0.443092 0.01842 0.87595 0.041956 1.319042 0.060375 0.025583 0.008186 0.051165 0.008186 0.067538 0.008186 0.89437 0.025583 1.788739 0.033769 2.691295 0.067538 1.685385 0.052189 3.371794 0.085958 5.074575 0.127913 0.571005 0.008186 1.140986-0.279363 1.720178-0.264013 0.783853 0.01842 1.584078-0.264013 2.384303-0.264013l0.118704 0c0.051165 0-0.289596 0.316202-0.289596 0.316202l0 0.151449c3.602038 0.033769 5.91778 0.119727 8.481162 0.146333-14.322194-28.736485-22.384823-61.210084-22.384823-95.431489 0-0.843204 0.024559-1.251503 0.024559-2.648316 0 0-0.008186 0-0.017396 0-0.672312 0-1.344624 0.067538-2.009773 0.041956-3.559059-0.144286-7.100722-0.25378-10.616802-0.459464-0.434905-0.025583-0.860601-0.025583-1.286296-0.060375-3.507894-0.203638-6.990205-0.425695-10.456143-0.697895-0.255827-0.025583-0.528026-0.033769-0.791016-0.060375-3.542686-0.279363-7.05058-0.587378-10.5421-0.927115-0.578168-0.067538-1.157359-0.119727-1.727341-0.169869-3.414773-0.341784-6.80294-0.715291-10.166547-1.125637-0.529049-0.058328-1.073448-0.11768-1.600451-0.186242-3.475148-0.425695-6.930853-0.86981-10.353812-1.344624-0.102331-0.01842-0.212848-0.033769-0.315178-0.052189-3.448542-0.493234-6.871501-1.004887-10.259668-1.549286-0.323365-0.060375-0.664126-0.11154-0.988514-0.161682-3.328815-0.537236-6.623861-1.115404-9.885138-1.713015-0.485047-0.083911-0.960885-0.169869-1.438769-0.264013-3.261277-0.603751-6.487761-1.233084-9.689686-1.898233-0.315178-0.060375-0.629333-0.11768-0.945535-0.195451-6.65763-1.38658-13.170974-2.885723-19.523659-4.487198-0.315178-0.083911-0.629333-0.151449-0.936325-0.237407-3.082198-0.783853-6.129604-1.600451-9.136078-2.434445-0.349971-0.104377-0.689708-0.205685-1.039679-0.289596-3.055592-0.86981-6.087649-1.75497-9.067516-2.656503-0.075725-0.035816-0.152473-0.052189-0.230244-0.077771-3.107781-0.953721-6.164397-1.933025-9.179057-2.937912-0.033769-0.016373-0.067538-0.023536-0.102331-0.033769-2.920516-0.979304-5.780657-1.635243-8.608052-2.656503-0.033769-0.016373-0.076748 0-0.118704 0 0 0 0 0 0 0.008186-0.119727 0.044002-0.23843 0.153496-0.340761 0.161682-0.00921 0-0.00921 0-0.017396 0-3.304256-1.243317-6.556323-2.520403-9.740852-3.821025-0.153496-0.060375-0.306992-0.119727-0.460488-0.180102-3.149736-1.302669-6.249331-2.629897-9.280364-3.985778-0.152473-0.075725-0.331551-0.144286-0.493234-0.220011-3.031033-1.363044-6.002714-2.759857-8.905834-4.181229-0.137123-0.060375-0.273223-0.127913-0.417509-0.203638-3.021823-1.490957-5.967922-3.006474-8.829086-4.546549-0.017396-0.010233-0.025583-0.010233-0.033769-0.010233-2.691295-1.463328-5.313006-2.935865-7.860015-4.443196-0.169869-0.102331-0.348947-0.195451-0.518816-0.297782-5.415336-3.212158-10.489912-6.531763-15.21554-9.955746-0.00921 0-0.00921 0-0.017396-0.008186-18.774599-13.596669-31.904641-28.822442-37.924751-45.127803-0.808412-2.170432-1.489934-4.351098-2.034333-6.547113l-1.720178 0 0 82.847893c0 0.969071 0.033769 1.940189 0.084934 2.920516C164.016029 589.726246 164.042635 590.042447 164.067194 590.357626zM164.067194 442.068278c0.042979 0.663102 0.094144 1.337461 0.161682 2.00875 0.042979 0.341784 0.076748 0.697895 0.118704 1.046842 0.076748 0.639566 0.170892 1.285273 0.264013 1.916653 0.052189 0.339738 0.103354 0.679475 0.170892 1.013073 0.118704 0.705058 0.254803 1.421372 0.408299 2.118244 0.051165 0.255827 0.094144 0.503467 0.152473 0.74906 0.434905 1.958608 0.970094 3.891633 1.609661 5.808286 0.059352 0.186242 0.12689 0.373507 0.187265 0.561795 0.273223 0.791016 0.553609 1.583055 0.860601 2.366907 0.075725 0.203638 0.152473 0.391926 0.221034 0.579191 0.340761 0.832971 0.681522 1.669012 1.046842 2.501984 0.042979 0.102331 0.094144 0.205685 0.145309 0.316202 20.128433 45.033659 93.89039 81.323167 190.027961 94.809319l0 0c0.008186 0 0.017396 0 0.033769 0 2.912329 0.407276 5.858428 0.791016 8.820899 1.157359 0.715291 0.085958 1.429559 0.171915 2.145873 0.255827 2.936889 0.358157 5.874801 0.697895 8.838296 1.004887 0.051165 0 0.084934 0.016373 0.1361 0.016373 2.997264 0.308015 6.02932 0.597611 9.076726 0.861624 0.740874 0.067538 1.480724 0.127913 2.222621 0.195451 3.021823 0.25378 6.053879 0.493234 9.102309 0.697895 0.033769 0.016373 0.067538 0.016373 0.102331 0.016373 3.083222 0.213871 6.181793 0.391926 9.29776 0.563842 0.766456 0.033769 1.532913 0.075725 2.308579 0.109494 0.041956 0.008186 0.084934 0.008186 0.12689 0.008186 4.546549 0.239454 9.127891 0.409322 13.734816 0.561795 9.680477-37.854143 29.450752-71.717392 56.289004-98.513688-0.578168 0.033769-1.149173 0.085958-1.727341 0.11154-0.38374 0.023536-0.774643 0.060375-1.166569 0.075725-0.042979 0-0.085958 0-0.119727 0-1.174756 0.067538-2.358721 0.119727-3.541663 0.180102-2.350534 0.125867-4.700045 0.245593-7.066953 0.347924-0.595564 0.025583-1.182942 0.052189-1.77032 0.067538-0.085958 0.010233-0.170892 0.010233-0.246617 0.01842-0.076748 0-0.161682 0-0.23843 0-3.448542 0.1361-6.90527 0.237407-10.387581 0.305969-0.587378 0.01842-1.182942 0.01842-1.762133 0.033769-3.746324 0.067538-7.492648 0.11154-11.265578 0.11154-3.771907 0-7.518231-0.044002-11.247158-0.11154-0.596588-0.008186-1.183965-0.016373-1.77032-0.033769-3.560082-0.067538-7.100722-0.169869-10.627035-0.305969-0.169869-0.008186-0.340761-0.01842-0.51063-0.01842-0.493234-0.025583-1.003863-0.041956-1.499144-0.067538-2.672876-0.102331-5.311982-0.245593-7.969509-0.391926-0.87595-0.050142-1.77032-0.075725-2.647293-0.127913-0.085958-0.008186-0.170892-0.008186-0.265036-0.016373-0.339738-0.025583-0.680499-0.044002-1.02126-0.067538-1.174756-0.067538-2.316765-0.161682-3.490497-0.239454-2.316765-0.151449-4.64888-0.297782-6.956436-0.484024-0.195451-0.01842-0.391926-0.025583-0.587378-0.033769-0.068562-0.01842-0.137123-0.01842-0.212848-0.01842-2.035356-0.169869-4.045129-0.358157-6.053879-0.545422-1.499144-0.1361-2.997264-0.25378-4.488221-0.407276-0.195451-0.01842-0.400113-0.033769-0.595564-0.052189-0.382717-0.033769-0.757247-0.075725-1.131777-0.11768-3.414773-0.341784-6.80294-0.715291-10.166547-1.107217-0.255827-0.033769-0.511653-0.067538-0.766456-0.094144-0.280386-0.033769-0.562818-0.067538-0.833995-0.102331-3.475148-0.417509-6.930853-0.86981-10.353812-1.352811-0.033769 0-0.076748-0.010233-0.118704-0.01842-0.067538 0-0.127913-0.01842-0.195451-0.01842-1.609661-0.237407-3.192715-0.493234-4.776793-0.731664-0.833995-0.127913-1.669012-0.245593-2.486634-0.373507-0.9967-0.153496-2.009773-0.289596-2.997264-0.459464-0.323365-0.052189-0.664126-0.104377-0.9967-0.153496-1.013073-0.169869-2.000564-0.349971-3.006474-0.51984-2.298346-0.391926-4.597715-0.775666-6.879688-1.191128-0.23843-0.044002-0.476861-0.094144-0.715291-0.127913-0.237407-0.052189-0.476861-0.094144-0.723477-0.1361-3.261277-0.605797-6.488785-1.235131-9.6815-1.89107-0.323365-0.067538-0.629333-0.1361-0.953721-0.203638-3.320629-0.689708-6.615675-1.415232-9.876951-2.164293-3.252067-0.747014-6.470365-1.52268-9.655917-2.332115-0.305969-0.067538-0.61296-0.151449-0.918929-0.230244-3.082198-0.791016-6.129604-1.600451-9.145287-2.442632-0.340761-0.085958-0.689708-0.188288-1.038656-0.289596-3.056616-0.861624-6.079462-1.736551-9.067516-2.656503-0.076748-0.01842-0.145309-0.044002-0.230244-0.069585-3.099594-0.953721-6.164397-1.922792-9.179057-2.935865-0.033769-0.010233-0.067538-0.025583-0.103354-0.033769-2.912329-0.979304-5.77247-1.984191-8.598842-3.006474-0.161682-0.052189-0.323365-0.102331-0.493234-0.169869l0.017396 0c-1.992377-0.725524-3.968381-1.465374-5.925966-2.222621-0.596588-0.230244-1.192152-0.469698-1.788739-0.699941-1.379417-0.543376-2.750647-1.088798-4.103458-1.642406-0.638543-0.255827-1.2689-0.51984-1.907443-0.783853-1.404999-0.577145-2.800789-1.174756-4.189416-1.77032-0.476861-0.211824-0.970094-0.425695-1.446955-0.629333-1.873674-0.817622-3.729951-1.65264-5.54325-2.50403-0.127913-0.050142-0.264013-0.11768-0.401136-0.186242-1.669012-0.783853-3.320629-1.566682-4.954849-2.367931-0.460488-0.220011-0.903579-0.459464-1.363044-0.681522-1.344624-0.663102-2.672876-1.344624-3.976568-2.025123-0.443092-0.222057-0.88516-0.459464-1.328251-0.691755-1.50733-0.791016-2.989077-1.591241-4.453429-2.408863-0.169869-0.094144-0.340761-0.188288-0.51984-0.289596-1.727341-0.953721-3.413749-1.933025-5.082762-2.920516-0.042979-0.025583-0.085958-0.060375-0.137123-0.085958-1.549286-0.918929-3.064802-1.847068-4.563946-2.799766-0.272199-0.171915-0.544399-0.341784-0.817622-0.511653-1.328251-0.851391-2.639107-1.702782-3.933589-2.572592-0.212848-0.151449-0.434905-0.287549-0.64673-0.442068-4.546549-3.082198-8.804527-6.249331-12.738116-9.519818-0.1361-0.109494-0.273223-0.222057-0.408299-0.339738-1.234107-1.031493-2.435469-2.060939-3.609201-3.118014-0.060375-0.050142-0.119727-0.102331-0.179079-0.151449-2.536776-2.281973-4.930289-4.598738-7.151887-6.949272-1.217734-1.277086-2.393513-2.570545-3.517103-3.8814-0.051165-0.067538-0.119727-0.1361-0.179079-0.203638-0.042979-0.060375-0.094144-0.11154-0.145309-0.171915-0.493234-0.577145-0.970094-1.157359-1.456165-1.752924-0.042979-0.052189-0.076748-0.102331-0.118704-0.146333-0.145309-0.178055-0.281409-0.347924-0.417509-0.51984-0.706081-0.88516-1.387603-1.77032-2.051729-2.656503-0.00921-0.008186-0.00921-0.016373-0.025583-0.033769-0.655939-0.88516-1.294482-1.77032-1.915629-2.671852-0.230244-0.333598-0.451278-0.665149-0.681522-0.997724-0.322341-0.48607-0.638543-0.979304-0.953721-1.465374-0.264013-0.415462-0.51984-0.825808-0.774643-1.233084-0.273223-0.451278-0.545422-0.895393-0.809435-1.337461-0.36532-0.621147-0.706081-1.243317-1.046842-1.864464-0.093121-0.161682-0.187265-0.323365-0.280386-0.493234-0.203638-0.375553-0.400113-0.76748-0.595564-1.140986-0.076748-0.153496-0.145309-0.289596-0.222057-0.444115-0.195451-0.391926-0.400113-0.783853-0.595564-1.174756-0.179079-0.373507-0.358157-0.73985-0.528026-1.105171-0.060375-0.119727-0.110517-0.24764-0.161682-0.375553-0.255827-0.528026-0.494257-1.072425-0.724501-1.600451-0.102331-0.246617-0.212848-0.48607-0.315178-0.732687-0.273223-0.629333-0.51063-1.277086-0.74906-1.923816-0.093121-0.23843-0.195451-0.494257-0.288572-0.741897-0.103354-0.280386-0.204661-0.571005-0.297782-0.859577-0.23843-0.672312-0.468674-1.344624-0.673335-2.035356-0.093121-0.280386-0.179079-0.569982-0.264013-0.851391-0.280386-0.927115-0.535189-1.864464-0.774643-2.808976l-1.720178 0 0 83.536578c0 0.98749 0.033769 1.956561 0.084934 2.927679C164.016029 441.455317 164.042635 441.760263 164.067194 442.068278zM857.560782 806.363238l-76.409251-76.402087c0 0-0.00921 0-0.00921 0.01842 24.172539-31.460526 38.544875-70.824045 38.544875-113.566522 0-103.043864-83.527368-186.571233-186.570209-186.571233S446.546777 513.36816 446.546777 616.412025c0 103.041818 83.527368 186.571233 186.570209 186.571233 34.091446 0 66.047252-9.146311 93.549629-25.119097l79.70532 79.69611c3.873214 3.883447 10.848069 3.210112 15.547091-1.499144l34.142611-34.134425C860.770893 817.220516 861.443206 810.254871 857.560782 806.363238zM490.020918 616.412025c0-79.031984 64.072271-143.097092 143.096069-143.097092s143.096069 64.064085 143.096069 143.097092-64.072271 143.095046-143.096069 143.095046S490.020918 695.445032 490.020918 616.412025zM778.341532 733.529419c-0.00921 0.010233-0.017396 0.010233-0.017396 0.025583C778.32516 733.538629 778.332323 733.538629 778.341532 733.529419zM730.676953 775.464507c-0.033769 0.016373-0.060375 0.041956-0.102331 0.060375C730.617601 775.506463 730.643184 775.48088 730.676953 775.464507zM734.440673 773.096577c0.051165-0.033769 0.102331-0.083911 0.169869-0.11768C734.541981 773.011642 734.491839 773.061784 734.440673 773.096577zM738.228953 770.567987c0.068562-0.041956 0.137123-0.094144 0.204661-0.144286C738.366076 770.473843 738.297514 770.526031 738.228953 770.567987zM741.96709 767.95344c0.067538-0.050142 0.1361-0.109494 0.212848-0.169869C742.1124 767.843946 742.035652 767.903298 741.96709 767.95344zM745.62848 765.245771c0.075725-0.067538 0.152473-0.11768 0.230244-0.178055C745.781976 765.127068 745.705228 765.17721 745.62848 765.245771zM749.238704 762.437819c0.067538-0.052189 0.127913-0.102331 0.195451-0.153496C749.366617 762.335489 749.306242 762.385631 749.238704 762.437819zM752.763994 759.559259c0.067538-0.052189 0.12689-0.102331 0.187265-0.153496C752.890884 759.456928 752.832556 759.50707 752.763994 759.559259zM756.228909 756.579391c0.060375-0.033769 0.103354-0.085958 0.153496-0.138146C756.331239 756.493433 756.288261 756.545622 756.228909 756.579391zM759.626285 753.530962c0.033769-0.035816 0.084934-0.077771 0.118704-0.11154C759.71122 753.453191 759.660054 753.495146 759.626285 753.530962zM762.946914 750.397598c0.024559-0.033769 0.051165-0.067538 0.084934-0.094144C762.998079 750.329037 762.972497 750.363829 762.946914 750.397598zM766.182608 747.177254c0.017396-0.033769 0.041956-0.050142 0.067538-0.067538C766.224564 747.128135 766.200004 747.153718 766.182608 747.177254zM775.430226 737.046522c0 0 0 0.008186-0.017396 0.016373C775.430226 737.054709 775.430226 737.046522 775.430226 737.046522zM772.449335 740.478691c-0.00921 0.008186-0.017396 0.023536-0.025583 0.023536C772.432962 740.494041 772.441149 740.485855 772.449335 740.478691zM769.38351 743.823879c-0.017396 0.025583-0.033769 0.033769-0.041956 0.050142C769.349741 743.857649 769.367137 743.849462 769.38351 743.823879z"
    fill="currentColor" p-id="8817"></path>
</svg>